{
  "accessors": [
    {
      "bufferView": 2,
      "componentType": 5126,
      "count": 4690,
      "max": [
        0.74270999431610107,
        0.79110997915267944,
        2.5610001087188721
      ],
      "min": [
        -0.98607999086380005,
        -0.84153997898101807,
        -0.0003499999875202775
      ],
      "type": "VEC3"
    },
    {
      "bufferView": 2,
      "byteOffset": 56280,
      "componentType": 5126,
      "count": 4690,
      "max": [
        0.99825304746627808,
        0.99940574169158936,
        0.99902009963989258
      ],
      "min": [
        -0.99977380037307739,
        -0.99982249736785889,
        -0.99979156255722046
      ],
      "type": "VEC3"
    },
    {
      "bufferView": 3,
      "componentType": 5126,
      "count": 4690,
      "max": [
        0.99982446432113647,
        0.99999338388442993,
        0.99919092655181885,
        1
      ],
      "min": [
        -0.99994450807571411,
        -0.99922436475753784,
        -0.99836885929107666,
        -1
      ],
      "type": "VEC4"
    },
    {
      "bufferView": 2,
      "byteOffset": 112560,
      "componentType": 5126,
      "count": 4690,
      "max": [
        1,
        1,
        1
      ],
      "min": [
        1,
        1,
        1
      ],
      "type": "VEC3"
    },
    {
      "bufferView": 1,
      "componentType": 5126,
      "count": 4690,
      "max": [
        0.99256998300552368,
        0.99190998077392578
      ],
      "min": [
        0.006029999814927578,
        0.010239999741315842
      ],
      "type": "VEC2"
    },
    {
      "bufferView": 0,
      "componentType": 5125,
      "count": 22896,
      "max": [
        4689
      ],
      "min": [
        0
      ],
      "type": "SCALAR"
    }
  ],
  "asset": {
    "generator": "Sketchfab (OSG glTF plugin)",
    "version": "2.0"
  },
  "bufferViews": [
    {
      "buffer": 0,
      "byteLength": 91584,
      "byteOffset": 0,
      "name": "floatBufferViews",
      "target": 34963
    },
    {
      "buffer": 0,
      "byteLength": 37520,
      "byteOffset": 91584,
      "byteStride": 8,
      "name": "floatBufferViews",
      "target": 34962
    },
    {
      "buffer": 0,
      "byteLength": 168840,
      "byteOffset": 129104,
      "byteStride": 12,
      "name": "floatBufferViews",
      "target": 34962
    },
    {
      "buffer": 0,
      "byteLength": 75040,
      "byteOffset": 297944,
      "byteStride": 16,
      "name": "floatBufferViews",
      "target": 34962
    }
  ],
  "buffers": [
    {
      "byteLength": 372984,
      "uri": "scene.bin"
    }
  ],
  "images": [
    {
      "uri": "textures/Darius.002_baseColor.png"
    }
  ],
  "materials": [
    {
      "doubleSided": true,
      "emissiveFactor": [
        0,
        0,
        0
      ],
      "name": "Darius.002",
      "pbrMetallicRoughness": {
        "baseColorFactor": [
          1,
          1,
          1,
          1
        ],
        "baseColorTexture": {
          "index": 0,
          "texCoord": 0
        },
        "metallicFactor": 0,
        "roughnessFactor": 0.59999999999999998
      }
    }
  ],
  "meshes": [
    {
      "name": "Darius.001_0",
      "primitives": [
        {
          "attributes": {
            "COLOR_0": 3,
            "NORMAL": 1,
            "POSITION": 0,
            "TANGENT": 2,
            "TEXCOORD_0": 4
          },
          "indices": 5,
          "material": 0,
          "mode": 4
        }
      ]
    }
  ],
  "nodes": [
    {
      "children": [
        1
      ],
      "name": "RootNode (gltf orientation matrix)",
      "rotation": [
        -0.70710678118654746,
        -0,
        -0,
        0.70710678118654757
      ]
    },
    {
      "children": [
        2
      ],
      "name": "RootNode (model correction matrix)"
    },
    {
      "children": [
        3
      ],
      "name": "Root"
    },
    {
      "children": [
        4
      ],
      "matrix": [
        0.97543999999999997,
        0.22027000000000002,
        -0,
        0,
        -0.22027000000000002,
        0.97543999999999997,
        -0,
        0,
        -0,
        0,
        1,
        0,
        0,
        0.039900000000000005,
        0,
        1
      ],
      "name": "Darius.001"
    },
    {
      "children": [
        5
      ],
      "name": "Geode"
    },
    {
      "mesh": 0,
      "name": "Darius.001_0"
    }
  ],
  "samplers": [
    {
      "magFilter": 9729,
      "minFilter": 9987,
      "wrapS": 10497,
      "wrapT": 10497
    }
  ],
  "scene": 0,
  "scenes": [
    {
      "name": "OSG_Scene",
      "nodes": [
        0
      ]
    }
  ],
  "textures": [
    {
      "sampler": 0,
      "source": 0
    }
  ]
}

